<?xml version="1.0" encoding="UTF-8" standalone="no"?>
<svg
   data-name="Layer 54"
   viewBox="0 0 149.29555 117.78589"
   x="0px"
   y="0px"
   version="1.1"
   id="svg9"
   sodipodi:docname="logo-v1.3-with-text-white.svg"
   width="149.29555"
   height="117.78589"
   inkscape:version="1.3 (0e150ed6c4, 2023-07-21)"
   xmlns:inkscape="http://www.inkscape.org/namespaces/inkscape"
   xmlns:sodipodi="http://sodipodi.sourceforge.net/DTD/sodipodi-0.dtd"
   xmlns:xlink="http://www.w3.org/1999/xlink"
   xmlns="http://www.w3.org/2000/svg"
   xmlns:svg="http://www.w3.org/2000/svg"
   xmlns:rdf="http://www.w3.org/1999/02/22-rdf-syntax-ns#"
   xmlns:cc="http://creativecommons.org/ns#"
   xmlns:dc="http://purl.org/dc/elements/1.1/">
  <defs
     id="defs9">
    <linearGradient
       id="linearGradient164"
       inkscape:collect="always">
      <stop
         style="stop-color:#00feff;stop-opacity:1;"
         offset="0"
         id="stop163" />
      <stop
         style="stop-color:#0085ff;stop-opacity:1;"
         offset="0.49173349"
         id="stop164" />
      <stop
         style="stop-color:#00ff41;stop-opacity:1;"
         offset="0.99525428"
         id="stop165" />
    </linearGradient>
    <linearGradient
       id="linearGradient55"
       inkscape:collect="always">
      <stop
         style="stop-color:#00ffc5;stop-opacity:1;"
         offset="0"
         id="stop54" />
      <stop
         style="stop-color:#ff00ed;stop-opacity:1;"
         offset="1"
         id="stop55" />
    </linearGradient>
    <linearGradient
       inkscape:collect="always"
       xlink:href="#linearGradient55"
       id="linearGradient94"
       x1="25.352228"
       y1="140.0229"
       x2="174.64777"
       y2="140.0229"
       gradientUnits="userSpaceOnUse" />
    <linearGradient
       inkscape:collect="always"
       xlink:href="#linearGradient164"
       id="linearGradient2"
       x1="82.463211"
       y1="106.9343"
       x2="162.46321"
       y2="106.9343"
       gradientUnits="userSpaceOnUse" />
  </defs>
  <sodipodi:namedview
     id="namedview9"
     pagecolor="#ffffff"
     bordercolor="#000000"
     borderopacity="0.25"
     inkscape:showpageshadow="2"
     inkscape:pageopacity="0.0"
     inkscape:pagecheckerboard="true"
     inkscape:deskcolor="#d1d1d1"
     showgrid="false"
     inkscape:zoom="4.851069"
     inkscape:cx="95.442881"
     inkscape:cy="59.883708"
     inkscape:window-width="1920"
     inkscape:window-height="1011"
     inkscape:window-x="0"
     inkscape:window-y="0"
     inkscape:window-maximized="1"
     inkscape:current-layer="svg9"
     showguides="true">
    <sodipodi:guide
       position="100,222.84836"
       orientation="-1,0"
       id="guide11"
       inkscape:locked="false"
       inkscape:label=""
       inkscape:color="rgb(0,134,229)" />
    <sodipodi:guide
       position="80.000001,117.78589"
       orientation="-1,0"
       id="guide89"
       inkscape:locked="false"
       inkscape:label=""
       inkscape:color="rgb(0,134,229)" />
  </sodipodi:namedview>
  <title
     id="title1">46. more clouds with sun and wind</title>
  <g
     id="g157"
     style="fill:#ffffff;fill-opacity:1;stroke:none">
    <path
       d="m 79.213451,18.560952 v 5.093062 a 0.87061065,0.87061065 0 0 0 1.741221,0 v -5.093062 a 0.87061065,0.87061065 0 0 0 -1.741221,0 z"
       id="path1"
       style="stroke-width:0.87061;fill:#ffffff;stroke:none;stroke-opacity:1;fill-opacity:1" />
    <path
       d="m 62.271407,35.494292 a 0.87060868,0.87060868 0 0 0 0,1.741215 h 5.093062 a 0.87060868,0.87060868 0 0 0 0,-1.741215 z"
       id="path2"
       style="stroke-width:0.87061;fill:#ffffff;stroke:none;stroke-opacity:1;fill-opacity:1" />
    <path
       d="m 89.086155,28.233415 a 0.87060868,0.87060868 0 0 0 0.618135,-0.252476 l 3.595611,-3.604321 a 0.87060868,0.87060868 0 1 0 -1.227555,-1.227559 l -3.604321,3.595615 a 0.87060868,0.87060868 0 0 0 0,1.236265 0.87060868,0.87060868 0 0 0 0.61813,0.252476 z"
       id="path3"
       style="stroke-width:0.87061;fill:#ffffff;stroke:none;stroke-opacity:1;fill-opacity:1" />
    <path
       d="m 71.090673,28.233415 a 0.87060868,0.87060868 0 0 0 0.609426,-1.488741 l -3.595614,-3.595615 a 0.87060868,0.87060868 0 0 0 -1.227558,0 0.87060868,0.87060868 0 0 0 0,1.227559 l 3.560789,3.604321 a 0.87060868,0.87060868 0 0 0 0.652957,0.252476 z"
       id="path4"
       style="stroke-width:0.87061;fill:#ffffff;stroke:none;stroke-opacity:1;fill-opacity:1" />
    <path
       d="m 112.20456,52.610458 c 0,-0.47013 0.0517,-0.948964 0.0517,-1.419093 A 18.216571,18.282782 0 0 0 88.756985,33.631189 9.2037049,9.2371585 0 0 0 70.765949,36.364901 9.1082855,9.1413912 0 0 0 72.735074,42.067387 18.390061,18.456904 0 0 0 65.040741,49.6678 10.331398,10.36895 0 0 0 51.274218,59.47956 v 0.08705 a 8.9608172,8.9933872 0 0 0 -2.333455,1.009907 0.86745574,0.87060868 0 0 0 -0.268912,1.149202 0.86745574,0.87060868 0 0 0 1.188415,0.296007 7.425421,7.4524103 0 0 1 2.498273,-0.957669 0.86745574,0.87060868 0 0 0 0.711313,-0.93155 c 0,-0.226359 0,-0.461423 0,-0.696489 a 8.5964864,8.6277319 0 0 1 12.031611,-7.879007 0.86745574,0.87060868 0 0 0 1.136368,-0.417892 16.533705,16.593802 0 0 1 31.445272,7.165108 15.865765,15.923433 0 0 1 -0.11277,1.941458 0.86745574,0.87060868 0 0 0 0.641918,0.975083 7.5208411,7.5481772 0 0 1 5.595069,7.304404 7.5295158,7.5568833 0 0 1 -7.529493,7.49594 H 81.16695 a 0.86745584,0.87060877 0 1 0 0,1.741217 h 15.111081 a 9.2731018,9.3068056 0 0 0 8.995509,-7.112872 h 3.83415 a 9.2817763,9.3155135 0 0 0 9.27311,-9.271979 9.1863568,9.2197453 0 0 0 -2.71514,-6.573096 9.3164734,9.3503371 0 0 0 -3.46114,-2.193933 z M 80.420973,38.924489 c -0.320959,0.365656 -0.641919,0.740017 -0.936855,1.131791 -0.520472,0.05223 -1.040945,0.121886 -1.552743,0.217653 a 18.485481,18.552671 0 0 0 -3.565244,1.036024 7.4687938,7.4959407 0 1 1 12.760277,-7.078048 18.329339,18.39596 0 0 0 -6.705435,4.69258 z m 28.686747,30.018587 h -3.58257 c 0,-0.148003 0,-0.296007 0,-0.44401 A 9.2817763,9.3155135 0 0 0 99.348858,59.72333 c 0,-0.461422 0.05207,-0.940256 0.05207,-1.419092 A 18.268619,18.335019 0 0 0 81.77422,40.021456 a 16.481658,16.541565 0 0 1 28.74749,11.169909 15.614202,15.670956 0 0 1 -0.11278,1.932752 0.86745574,0.87060868 0 0 0 0.64193,0.948963 7.5989122,7.626532 0 0 1 3.39177,1.924046 7.5381902,7.5655894 0 0 1 -5.33488,12.911127 z"
       id="path5"
       style="stroke-width:0.869032;fill:#ffffff;stroke:none;stroke-opacity:1;fill-opacity:1" />
    <path
       d="M 56.029143,74.279905 47.98955,74.171114 c -1.160704,-0.01567 -1.160704,1.725511 0,1.741217 l 8.039593,0.108791 c 1.481419,0.02001 2.223251,1.791137 1.17576,2.838628 -1.04749,1.047491 -2.838625,0.305794 -2.838625,-1.175765 0,-1.160809 -1.741215,-1.160809 -1.741215,0 0,3.032922 3.666665,4.551264 5.811004,2.406928 2.14434,-2.144344 0.625719,-5.769968 -2.406924,-5.811008 z"
       id="path6"
       sodipodi:nodetypes="sssssssss"
       style="stroke-width:0.87061;fill:#ffffff;stroke:none;stroke-opacity:1;fill-opacity:1" />
    <path
       d="M 69.793466,69.700506 H 47.751038 c -1.160811,0 -1.160811,1.741215 0,1.741215 h 22.042428 c 5.538376,0 8.311004,6.695651 4.395259,10.611396 -3.915753,3.915753 -10.611407,1.143126 -10.611407,-4.395251 0,-1.160809 -1.741216,-1.160809 -1.741216,0 0,7.089751 8.571186,10.639021 13.583786,5.626422 5.012602,-5.012599 1.463327,-13.583782 -5.626422,-13.583782 z"
       id="path7"
       sodipodi:nodetypes="sssssssss"
       style="stroke-width:0.87061;fill:#ffffff;stroke:none;stroke-opacity:1;fill-opacity:1" />
    <path
       d="m 73.998506,55.997126 c -2.937242,0.01919 -5.306864,2.408239 -5.302006,5.345535 0,1.160811 1.741216,1.160811 1.741216,0 9e-6,-3.20567 3.877316,-4.808479 6.141048,-2.539258 2.263721,2.269223 0.651519,6.142634 -2.554141,6.134874 l -30.168732,0.05124 c -1.160811,0.002 -1.160811,1.743189 0,1.741216 l 30.142615,-0.05124 c 3.029517,0.122437 5.552334,-2.300484 5.552334,-5.332475 0,-3.031992 -2.522817,-5.454915 -5.552334,-5.33248 z"
       id="path8"
       sodipodi:nodetypes="ccsscsscscc"
       style="stroke-width:0.87061;fill:#ffffff;stroke:none;stroke-opacity:1;fill-opacity:1" />
  </g>
  <metadata
     id="metadata9">
    <rdf:RDF>
      <cc:Work
         rdf:about="">
        <dc:title>46. more clouds with sun and wind</dc:title>
      </cc:Work>
    </rdf:RDF>
  </metadata>
  <g
     inkscape:groupmode="layer"
     id="layer1"
     inkscape:label="outline"
     transform="translate(-42.455863,-54.036031)"
     style="stroke:url(#linearGradient2)">
    <circle
       style="fill:none;stroke:#ffffff;stroke-width:1.645;stroke-linecap:butt;stroke-dasharray:none;stroke-opacity:1"
       id="path9"
       cx="122.46321"
       cy="106.9343"
       r="39.177391" />
  </g>
  <g
     inkscape:groupmode="layer"
     id="layer2"
     inkscape:label="text"
     transform="translate(-25.352228,-31.899345)">
    <text
       xml:space="preserve"
       style="font-style:normal;font-variant:normal;font-weight:normal;font-stretch:normal;font-size:18.6667px;font-family:Carlito;-inkscape-font-specification:Carlito;fill:#ffffff;fill-rule:evenodd;stroke:none;stroke-width:0.5;stroke-linecap:butt;stroke-dasharray:none;stroke-opacity:1;fill-opacity:1"
       x="27.028852"
       y="144.7804"
       id="text11"><tspan
         sodipodi:role="line"
         id="tspan11"
         x="27.028852"
         y="144.7804"
         style="font-style:normal;font-variant:normal;font-weight:bold;font-stretch:normal;font-size:18.6667px;font-family:Comfortaa;-inkscape-font-specification:'Comfortaa Bold';fill:#ffffff;fill-rule:evenodd;stroke:none;stroke-width:0.5;stroke-dasharray:none;fill-opacity:1">windspeed.app</tspan></text>
  </g>
</svg>
