<svg xmlns="http://www.w3.org/2000/svg" width="149.296" height="117.786" xmlns:v="https://vecta.io/nano"><defs><linearGradient ><stop offset="0" stop-color="#00feff"/><stop offset=".492" stop-color="#0085ff"/><stop offset=".995" stop-color="#00ff41"/></linearGradient></defs><path d="M79.213 18.561v5.093a.871.871 0 0 0 1.741 0v-5.093a.871.871 0 0 0-1.741 0zM62.271 35.494a.871.871 0 0 0 0 1.741h5.093a.871.871 0 0 0 0-1.741zm26.815-7.261a.871.871 0 0 0 .618-.252l3.596-3.604a.871.871 0 1 0-1.228-1.228l-3.604 3.596a.871.871 0 0 0 .618 1.489zm-17.995 0a.871.871 0 0 0 .609-1.489l-3.596-3.596a.871.871 0 0 0-1.228 0 .871.871 0 0 0 0 1.228l3.561 3.604a.871.871 0 0 0 .653.252zm41.114 24.377l.052-1.419a18.217 18.283 0 0 0-23.499-17.56 9.204 9.237 0 0 0-17.991 2.734 9.108 9.141 0 0 0 1.969 5.702 18.39 18.457 0 0 0-7.694 7.6 10.331 10.369 0 0 0-13.767 9.812v.087a8.961 8.993 0 0 0-2.333 1.01.867.871 0 0 0-.269 1.149.867.871 0 0 0 1.188.296 7.425 7.452 0 0 1 2.498-.958.867.871 0 0 0 .711-.932v-.696a8.596 8.628 0 0 1 12.032-7.879.867.871 0 0 0 1.136-.418 16.534 16.594 0 0 1 31.445 7.165 15.866 15.923 0 0 1-.113 1.941.867.871 0 0 0 .642.975 7.521 7.548 0 0 1 5.595 7.304 7.53 7.557 0 0 1-7.529 7.496H81.167a.867.871 0 1 0 0 1.741h15.111a9.273 9.307 0 0 0 8.996-7.113h3.834a9.282 9.316 0 0 0 9.273-9.272 9.186 9.22 0 0 0-2.715-6.573 9.316 9.35 0 0 0-3.461-2.194zM80.421 38.924l-.937 1.132-1.553.218a18.485 18.553 0 0 0-3.565 1.036 7.469 7.496 0 1 1 12.76-7.078 18.329 18.396 0 0 0-6.705 4.693zm28.687 30.019h-3.583v-.444a9.282 9.316 0 0 0-6.176-8.776l.052-1.419a18.269 18.335 0 0 0-17.627-18.283 16.482 16.542 0 0 1 28.747 11.17 15.614 15.671 0 0 1-.113 1.933.867.871 0 0 0 .642.949 7.599 7.627 0 0 1 3.392 1.924 7.538 7.566 0 0 1-5.335 12.911zM56.029 74.28l-8.04-.109c-1.161-.016-1.161 1.726 0 1.741l8.04.109c1.481.02 2.223 1.791 1.176 2.839s-2.839.306-2.839-1.176c0-1.161-1.741-1.161-1.741 0 0 3.033 3.667 4.551 5.811 2.407s.626-5.77-2.407-5.811zm13.764-4.579H47.751c-1.161 0-1.161 1.741 0 1.741h22.042c5.538 0 8.311 6.696 4.395 10.611s-10.611 1.143-10.611-4.395c0-1.161-1.741-1.161-1.741 0 0 7.09 8.571 10.639 13.584 5.626S76.883 69.7 69.794 69.7zm4.206-13.704a5.34 5.34 0 0 0-5.302 5.346c0 1.161 1.741 1.161 1.741 0 0-3.206 3.877-4.808 6.141-2.539s.652 6.143-2.554 6.135l-30.169.051c-1.161.002-1.161 1.743 0 1.741l30.143-.051a5.34 5.34 0 0 0 5.552-5.332 5.34 5.34 0 0 0-5.552-5.332z" fill="#fff"/><circle cx="80.007" cy="52.898" r="39.177" fill="none" stroke="#fff" stroke-width="1.645"/><path d="M14.202 102.671c-.448 0-.784.261-.971.859l-2.053 6.421-1.68-6.571c-.112-.411-.429-.709-.915-.709a.9.9 0 0 0-.933.709l-1.904 6.44-2.016-6.291c-.205-.616-.504-.859-.971-.859-.728 0-.915.541-.709 1.307l2.763 8.288a.98.98 0 0 0 .896.616c.411 0 .784-.261.896-.616l1.923-6.776 1.829 6.776c.093.355.485.616.896.616s.765-.261.877-.616l2.763-8.288c.261-.765 0-1.307-.691-1.307zm3.883-1.661c.672 0 1.232-.56 1.232-1.232s-.56-1.232-1.232-1.232-1.232.56-1.232 1.232.56 1.232 1.232 1.232zm0 11.872a.91.91 0 0 0 .952-.952v-8.307a.91.91 0 0 0-.952-.952.91.91 0 0 0-.952.952v8.307a.91.91 0 0 0 .952.952zm9.576-10.304c-1.269 0-2.389.467-3.173 1.251v-.205a.91.91 0 0 0-.952-.952.91.91 0 0 0-.952.952v8.325a.91.91 0 0 0 .952.952.91.91 0 0 0 .952-.952v-5.264c0-1.363 1.213-2.389 2.8-2.389 1.699 0 2.968.952 2.968 3.061v4.592a.93.93 0 0 0 .952.952.93.93 0 0 0 .952-.952v-4.592c0-3.099-1.941-4.779-4.499-4.779zm16.464-4.275a.91.91 0 0 0-.952.952v5.04a4.6 4.6 0 0 0-3.603-1.699c-2.725 0-4.779 2.221-4.779 5.171s2.221 5.189 5.152 5.189c2.912 0 5.115-2.24 5.133-5.189v-8.512a.91.91 0 0 0-.952-.952zm-4.181 12.973c-1.885 0-3.323-1.512-3.323-3.509s1.437-3.491 3.323-3.491 3.304 1.493 3.304 3.491-1.419 3.509-3.304 3.509zm12.208 1.68c2.632 0 4.013-1.363 4.013-3.061 0-1.475-.933-2.464-3.733-3.024-2.016-.411-2.408-.821-2.408-1.512 0-.709.859-1.101 1.96-1.101.952 0 1.624.187 2.259.784.373.355.989.485 1.4.205.392-.299.411-.765.075-1.176-.747-.915-2.053-1.475-3.696-1.475-1.904 0-3.827.915-3.827 2.819 0 1.437 1.064 2.464 3.584 2.949 1.941.355 2.557.896 2.539 1.643s-.803 1.269-2.24 1.269c-1.139 0-2.147-.504-2.576-.971-.355-.373-.877-.467-1.363-.075-.429.336-.504.915-.131 1.307.821.821 2.408 1.419 4.144 1.419zm11.555-10.36c-2.912 0-5.115 2.24-5.133 5.189v8.512a.91.91 0 0 0 .952.952.91.91 0 0 0 .952-.952v-5.04a4.6 4.6 0 0 0 3.603 1.699c2.725 0 4.779-2.221 4.779-5.171s-2.221-5.189-5.152-5.189zm0 8.68c-1.885 0-3.304-1.493-3.304-3.491s1.419-3.509 3.304-3.509 3.323 1.512 3.323 3.509-1.437 3.491-3.323 3.491zm17.155-3.659c0-2.949-1.736-5.021-4.648-5.021-2.949 0-5.04 2.147-5.04 5.189 0 3.024 2.203 5.171 5.32 5.171 1.139 0 2.539-.467 3.379-1.139.411-.317.392-.821-.037-1.195-.317-.261-.803-.261-1.176.019-.504.373-1.4.709-2.165.709-1.904 0-3.304-1.195-3.584-2.912h7.093c.504 0 .859-.336.859-.821zm-4.648-3.416c1.68 0 2.707 1.139 2.931 2.744h-6.216c.28-1.624 1.437-2.744 3.285-2.744zm15.867 3.416c0-2.949-1.736-5.021-4.648-5.021-2.949 0-5.04 2.147-5.04 5.189 0 3.024 2.203 5.171 5.32 5.171 1.139 0 2.539-.467 3.379-1.139.411-.317.392-.821-.037-1.195-.317-.261-.803-.261-1.176.019-.504.373-1.4.709-2.165.709-1.904 0-3.304-1.195-3.584-2.912h7.093c.504 0 .859-.336.859-.821zm-4.648-3.416c1.68 0 2.707 1.139 2.931 2.744h-6.216c.28-1.624 1.437-2.744 3.285-2.744zm15.512-5.899a.91.91 0 0 0-.952.952v5.04a4.6 4.6 0 0 0-3.603-1.699c-2.725 0-4.779 2.221-4.779 5.171s2.221 5.189 5.152 5.189c2.912 0 5.115-2.24 5.133-5.189v-8.512a.91.91 0 0 0-.952-.952zm-4.181 12.973c-1.885 0-3.323-1.512-3.323-3.509s1.437-3.491 3.323-3.491 3.304 1.493 3.304 3.491-1.419 3.509-3.304 3.509zm9.035 1.904a1.29 1.29 0 0 0 1.288-1.288c0-.709-.579-1.307-1.288-1.307-.691 0-1.288.579-1.288 1.307a1.29 1.29 0 0 0 1.288 1.288zm8.531-10.584c-2.931 0-5.152 2.24-5.152 5.189s2.053 5.171 4.779 5.171a4.6 4.6 0 0 0 3.603-1.699v.691a.93.93 0 1 0 1.904 0v-4.163c-.019-2.949-2.221-5.189-5.133-5.189zm0 8.68c-1.885 0-3.323-1.493-3.323-3.491s1.437-3.509 3.323-3.509 3.304 1.512 3.304 3.509-1.419 3.491-3.304 3.491zm13.104-8.68c-2.912 0-5.115 2.24-5.133 5.189v8.512a.91.91 0 1 0 1.904 0v-5.04a4.6 4.6 0 0 0 3.603 1.699c2.725 0 4.779-2.221 4.779-5.171s-2.221-5.189-5.152-5.189zm0 8.68c-1.885 0-3.304-1.493-3.304-3.491s1.419-3.509 3.304-3.509 3.323 1.512 3.323 3.509-1.437 3.491-3.323 3.491zm13.123-8.68c-2.912 0-5.115 2.24-5.133 5.189v8.512a.91.91 0 1 0 1.904 0v-5.04a4.6 4.6 0 0 0 3.603 1.699c2.725 0 4.779-2.221 4.779-5.171s-2.221-5.189-5.152-5.189zm0 8.68c-1.885 0-3.304-1.493-3.304-3.491s1.419-3.509 3.304-3.509 3.323 1.512 3.323 3.509-1.437 3.491-3.323 3.491z" fill="#fff" fill-rule="evenodd"/></svg>